<svg width="39" height="26" viewBox="0 0 39 26" fill="none" xmlns="http://www.w3.org/2000/svg">
<g clip-path="url(#clip0_5986_1870)">
<path d="M17.8162 20.0942C16.5562 19.0292 15.8337 17.4725 15.8337 15.8233V13.5C15.8337 10.5675 13.6553 8.14 10.8337 7.73333V6.83333C10.8337 6.3725 10.4603 6 10.0003 6C9.54033 6 9.16699 6.3725 9.16699 6.83333V7.73333C6.34449 8.14 4.16699 10.5675 4.16699 13.5V15.8233C4.16699 17.4725 3.44449 19.0292 2.17699 20.1008C1.85283 20.3783 1.66699 20.7817 1.66699 21.2083C1.66699 22.0125 2.32116 22.6667 3.12533 22.6667H16.8753C17.6795 22.6667 18.3337 22.0125 18.3337 21.2083C18.3337 20.7817 18.1478 20.3783 17.8162 20.0942Z" fill="#925FA4"/>
<path d="M10.0001 26C11.5093 26 12.7718 24.9242 13.0618 23.5H6.93848C7.22848 24.9242 8.49098 26 10.0001 26Z" fill="#925FA4"/>
</g>
<rect x="12" width="27" height="15" rx="7.5" fill="url(#paint0_linear_5986_1870)"/>
<path d="M19.77 11C19.7033 11 19.6467 10.9767 19.6 10.93C19.5533 10.8833 19.53 10.8267 19.53 10.76V5.58L18.01 6.75C17.97 6.78333 17.9233 6.8 17.87 6.8C17.79 6.8 17.7233 6.76333 17.67 6.69L17.25 6.15C17.2167 6.09667 17.2 6.04667 17.2 6C17.2 5.92 17.2367 5.85333 17.31 5.8L19.55 4.07C19.61 4.02333 19.6933 4 19.8 4H20.68C20.7533 4 20.81 4.02333 20.85 4.07C20.8967 4.11 20.92 4.16667 20.92 4.24V10.76C20.92 10.8267 20.8967 10.8833 20.85 10.93C20.81 10.9767 20.7533 11 20.68 11H19.77ZM22.3189 11C22.2522 11 22.1956 10.9767 22.1489 10.93C22.1022 10.8833 22.0789 10.8267 22.0789 10.76V10.25C22.0789 10.07 22.1622 9.91333 22.3289 9.78L23.9089 8.21C24.5956 7.67 25.0722 7.25 25.3389 6.95C25.6122 6.64333 25.7489 6.34333 25.7489 6.05C25.7489 5.73667 25.6622 5.49 25.4889 5.31C25.3222 5.13 25.0689 5.04 24.7289 5.04C24.3956 5.04 24.1322 5.14 23.9389 5.34C23.7456 5.53333 23.6256 5.78667 23.5789 6.1C23.5589 6.18 23.5222 6.24 23.4689 6.28C23.4156 6.31333 23.3556 6.33 23.2889 6.33H22.3989C22.3389 6.33 22.2889 6.31 22.2489 6.27C22.2089 6.23 22.1889 6.18333 22.1889 6.13C22.2022 5.73667 22.3089 5.37 22.5089 5.03C22.7089 4.68333 22.9989 4.40667 23.3789 4.2C23.7589 3.98667 24.2056 3.88 24.7189 3.88C25.2522 3.88 25.7022 3.97333 26.0689 4.16C26.4422 4.34 26.7222 4.59 26.9089 4.91C27.0956 5.23 27.1889 5.59333 27.1889 6C27.1889 6.44667 27.0622 6.85 26.8089 7.21C26.5622 7.57 26.1822 7.95667 25.6689 8.37L24.2489 9.81H27.0989C27.1722 9.81 27.2289 9.83333 27.2689 9.88C27.3156 9.92 27.3389 9.97667 27.3389 10.05V10.76C27.3389 10.8267 27.3156 10.8833 27.2689 10.93C27.2289 10.9767 27.1722 11 27.0989 11H22.3189ZM30.9303 11.1C30.3436 11.1 29.8436 11.0067 29.4303 10.82C29.0236 10.6333 28.717 10.4 28.5103 10.12C28.3103 9.83333 28.2036 9.54 28.1903 9.24C28.1903 9.18 28.2103 9.13333 28.2503 9.1C28.297 9.06 28.3503 9.04 28.4103 9.04H29.3103C29.457 9.04 29.5536 9.10667 29.6003 9.24C29.747 9.72 30.1936 9.96 30.9403 9.96C31.347 9.96 31.667 9.86667 31.9003 9.68C32.1336 9.48667 32.2503 9.21333 32.2503 8.86C32.2503 8.19333 31.8336 7.86 31.0003 7.86H29.9703C29.897 7.86 29.837 7.83667 29.7903 7.79C29.7436 7.74333 29.7203 7.68667 29.7203 7.62V7.2C29.7203 7.09333 29.767 6.99333 29.8603 6.9L31.6503 5.15H28.7903C28.7236 5.15 28.667 5.12667 28.6203 5.08C28.5736 5.03333 28.5503 4.97667 28.5503 4.91V4.25C28.5503 4.17667 28.5703 4.11667 28.6103 4.07C28.657 4.02333 28.717 4 28.7903 4H33.0803C33.1536 4 33.2136 4.02333 33.2603 4.07C33.307 4.11667 33.3303 4.17667 33.3303 4.25V4.85C33.3303 4.95 33.287 5.04333 33.2003 5.13L31.4703 6.91L31.5903 6.92C32.2303 6.97333 32.737 7.16667 33.1103 7.5C33.4903 7.83333 33.6803 8.31 33.6803 8.93C33.6803 9.37 33.5603 9.75333 33.3203 10.08C33.087 10.4067 32.7603 10.66 32.3403 10.84C31.927 11.0133 31.457 11.1 30.9303 11.1Z" fill="white"/>
<defs>
<linearGradient id="paint0_linear_5986_1870" x1="12" y1="7.5" x2="39" y2="7.5" gradientUnits="userSpaceOnUse">
<stop stop-color="#EE0979"/>
<stop offset="1" stop-color="#FF6A00"/>
</linearGradient>
<clipPath id="clip0_5986_1870">
<rect width="20" height="20" fill="white" transform="translate(0 6)"/>
</clipPath>
</defs>
</svg>
