<svg xmlns="http://www.w3.org/2000/svg" width="20" height="20" fill="none"><g clip-path="url(#a)"><path fill="#925FA4" d="m19.361 18.217-4.76-4.95a8.05 8.05 0 0 0 1.895-5.192C16.496 3.623 12.873 0 8.42 0 3.968 0 .346 3.623.346 8.075c0 4.453 3.622 8.075 8.075 8.075a7.99 7.99 0 0 0 4.626-1.461l4.796 4.988c.2.208.47.323.76.323a1.054 1.054 0 0 0 .76-1.783ZM8.421 2.107a5.975 5.975 0 0 1 5.968 5.968 5.975 5.975 0 0 1-5.968 5.969 5.975 5.975 0 0 1-5.969-5.969 5.975 5.975 0 0 1 5.969-5.968Z"/></g><defs><clipPath id="a"><path fill="#fff" d="M0 0h20v20H0z"/></clipPath></defs></svg>